<svg data-noselect="" viewBox="0 0 400 300" width="400" height="300" preserveAspectRatio="none" version="1.1" xmlns="http://www.w3.org/2000/svg" style="background: rgba(255, 255, 255, 0);"><defs></defs> <g id="shape_zJsFCJIazp" transform="translate(46.891191709844556,46.63212435233161) rotate(0,98.5,66.5) scale(1.5544041450777202,1.5544041450777202)" filter="" style="cursor: move; opacity: 1;"><g><rect fill="rgba(0,0,0,0)" width="217" height="153" x="-10" y="-10"></rect><svg version="1.1" id="图层_1" xmlns="http://www.w3.org/2000/svg" xmlns:xlink="http://www.w3.org/1999/xlink" x="0px" y="0px" style="enable-background:new 0 0 283.46 283.46;" xml:space="preserve" viewBox="49.553009033203125 71.07500457763672 197.68898010253906 133.99600219726562" width="197" height="133" preserveAspectRatio="none" data-parent="shape_zJsFCJIazp">
<path style="" d="M211.023,109.863c-2.365-0.207-4.737-0.213-7.102,0.013c-4.396-8.401-10.834-15.014-19.231-19.469
	c-6.526-3.46-13.935-5.61-21.779-5.61c-16.103,0-30.689,6.487-41.3,16.984c7.963-5.68,17.894-8.878,28.367-8.878
	c19.395,0,36.729,11.046,43.125,27.482l2.266,5.819c8.246-2.032,15.92-3.533,23.836,0.569c8.199,4.248,13.823,12.829,13.823,22.71
	c0,7.452-3.28,14.181-8.699,19.192c-8.844,8.176-21.689,6.129-32.624,6.344c-9.798,0.19-34.16,0.026-36.53,0.026l38.347,30.026
	l-2.842-15.745c2.59-0.013,16.492,0,16.885,0c21.879,0,39.677-17.95,39.677-39.869C247.24,128.702,231.288,111.624,211.023,109.863z
	" fill="#1691D6"></path>
<path style="" d="M94.348,105.992c5.305-0.011,11.146,1.739,11.146,1.739s11.14-30.522,53.953-30.522
	c7.842,0,15.324,1.551,22.166,4.341c-10.009-6.672-22.217-10.475-35.091-10.475c-18.274,0-35.707,7.805-46.991,20.958
	c-1.865-0.234-3.556-0.35-5.158-0.35c-24.731,0-44.82,20.205-44.82,45.04c0,24.434,18.269,44.379,43.854,44.935v0.01h58.932
	l-36.189-30.872l2.844,17.042c-2.334,0.009-23.418,0-24.112,0c-16.896,0-31.169-14.163-31.169-30.924
	C63.712,119.864,77.455,106.032,94.348,105.992z" fill="#EF1B34"></path>
</svg></g> <!----></g>  <!----></svg>